<!DOCTYPE svg PUBLIC "-//W3C//DTD SVG 20010904//EN" "http://www.w3.org/TR/2001/REC-SVG-20010904/DTD/svg10.dtd">
<svg version="1.0" xmlns="http://www.w3.org/2000/svg" width="497px" height="161px" viewBox="0 0 4970 1610" preserveAspectRatio="xMidYMid meet">
<g id="layer101" fill="#272324" stroke="none">
 <path d="M1250 1475 l0 -135 60 0 c82 0 127 20 145 64 47 113 -18 206 -144 206 l-61 0 0 -135z m136 80 c48 -31 49 -141 2 -166 -12 -7 -38 -12 -57 -12 l-36 -1 -3 89 c-2 48 0 95 3 103 6 17 56 10 91 -13z"/>
 <path d="M1520 1509 c0 -90 2 -100 18 -97 14 3 17 17 20 101 3 92 2 97 -18 97 -19 0 -20 -6 -20 -101z"/>
 <path d="M1625 1586 c-47 -47 -26 -153 35 -175 53 -18 110 21 110 76 0 22 -4 23 -65 23 -58 0 -65 2 -65 20 0 30 43 53 86 46 31 -6 35 -5 32 11 -2 14 -14 19 -56 21 -44 3 -55 -1 -77 -22z m99 -115 c9 -14 -21 -33 -46 -29 -12 2 -24 11 -26 21 -3 13 4 17 32 17 19 0 37 -4 40 -9z"/>
 <path d="M1890 1589 c0 -19 4 -20 38 -14 29 5 44 2 62 -13 30 -25 18 -46 -46 -81 -42 -22 -49 -31 -52 -60 -5 -51 28 -81 90 -81 41 0 48 3 48 19 0 17 -5 19 -32 15 -44 -7 -78 17 -62 43 6 10 25 25 43 35 75 38 91 83 46 132 -20 22 -32 26 -80 26 -49 0 -55 -2 -55 -21z"/>
 <path d="M2105 1585 c-42 -41 -30 -140 19 -163 40 -19 56 -21 82 -12 37 14 25 35 -18 32 -41 -4 -57 11 -65 61 -8 50 24 80 74 71 32 -6 35 -5 30 10 -4 10 -7 20 -7 22 0 2 -20 4 -45 4 -35 0 -52 -6 -70 -25z"/>
 <path d="M2270 1465 c0 -138 1 -145 20 -145 18 0 20 7 20 54 l0 54 32 -15 c28 -14 35 -14 57 -2 25 14 26 20 29 107 3 86 2 92 -17 92 -18 0 -20 -8 -23 -82 -3 -71 -6 -83 -21 -86 -38 -7 -57 26 -57 100 0 61 -2 68 -20 68 -19 0 -20 -7 -20 -145z"/>
 <path d="M2507 1592 c-13 -14 -17 -38 -17 -100 0 -75 2 -82 20 -82 17 0 19 8 22 76 2 60 7 79 20 88 14 8 22 6 40 -11 17 -18 23 -37 26 -88 4 -56 7 -65 23 -65 17 0 19 9 19 100 0 92 -2 100 -19 100 -11 0 -21 -6 -24 -12 -4 -10 -7 -10 -18 0 -19 18 -73 15 -92 -6z"/>
 <path d="M2720 1465 c0 -138 1 -145 20 -145 19 0 20 7 20 145 0 138 -1 145 -20 145 -19 0 -20 -7 -20 -145z"/>
 <path d="M2842 1603 c-18 -7 -42 -57 -42 -88 0 -49 26 -92 63 -104 60 -20 107 12 107 73 0 25 -2 26 -66 26 -63 0 -65 1 -59 23 11 35 36 49 78 44 31 -4 37 -2 37 14 0 16 -7 19 -52 18 -29 0 -59 -3 -66 -6z m86 -135 c-8 -22 -37 -34 -55 -22 -33 21 -26 34 17 34 28 0 40 -4 38 -12z"/>
 <path d="M3106 1588 c-19 -26 -21 -96 -5 -131 14 -30 49 -50 89 -50 29 0 30 -2 30 -44 0 -36 3 -43 20 -43 19 0 20 7 20 145 0 138 -1 145 -20 145 -11 0 -20 -5 -20 -12 0 -9 -3 -9 -12 0 -21 21 -85 15 -102 -10z m80 -16 c20 -13 34 -50 34 -91 0 -39 -2 -41 -29 -41 -35 0 -61 31 -61 73 0 52 26 79 56 59z"/>
 <path d="M3337 1595 c-41 -31 -39 -132 4 -171 49 -44 129 -9 129 57 0 29 -1 29 -60 29 -53 0 -60 2 -60 19 0 35 29 54 71 47 40 -6 63 9 38 25 -22 14 -102 10 -122 -6z m93 -119 c0 -33 -44 -48 -68 -24 -21 21 -13 28 28 28 22 0 40 -2 40 -4z"/>
 <path d="M3520 1510 c0 -93 1 -100 20 -100 11 0 20 5 20 11 0 5 10 3 22 -5 29 -21 38 -20 38 3 0 11 -9 23 -21 26 -27 9 -39 44 -39 111 0 47 -2 54 -20 54 -19 0 -20 -7 -20 -100z"/>
 <path d="M3780 1496 l0 -115 -37 -3 c-27 -2 -39 -8 -41 -20 -3 -16 7 -18 98 -18 91 0 101 2 98 18 -2 12 -13 17 -38 17 l-35 1 -3 117 c-2 109 -4 117 -22 117 -19 0 -20 -7 -20 -114z"/>
 <path d="M3905 1586 c-20 -20 -25 -35 -25 -73 0 -56 17 -85 59 -103 37 -15 78 2 100 41 25 44 10 59 -59 59 -53 0 -60 2 -60 20 0 30 43 53 86 46 31 -6 35 -5 32 11 -2 14 -14 19 -56 21 -44 3 -55 -1 -77 -22z m93 -123 c-4 -22 -44 -29 -64 -13 -24 21 -16 30 27 30 33 0 40 -3 37 -17z"/>
 <path d="M4101 1586 c-28 -29 -33 -95 -12 -134 26 -48 131 -65 131 -22 0 16 -6 18 -34 13 -27 -4 -36 -1 -50 18 -40 57 -3 129 59 113 23 -6 26 -4 23 12 -2 15 -13 20 -48 22 -38 2 -50 -1 -69 -22z"/>
 <path d="M4270 1465 c0 -122 2 -145 15 -145 11 0 15 12 15 51 0 49 1 51 23 44 39 -13 80 -9 94 11 8 11 13 47 13 101 0 76 -2 83 -20 83 -18 0 -20 -7 -20 -74 0 -79 -13 -103 -48 -92 -27 9 -42 48 -42 111 0 42 -4 55 -15 55 -13 0 -15 -23 -15 -145z"/>
 <path d="M4490 1510 c0 -93 1 -100 20 -100 11 0 20 4 20 9 0 5 14 2 32 -6 28 -14 35 -14 57 -2 25 14 26 20 29 107 3 86 2 92 -17 92 -18 0 -20 -8 -23 -82 -3 -76 -5 -83 -25 -86 -34 -5 -53 33 -53 105 0 56 -2 63 -20 63 -19 0 -20 -7 -20 -100z"/>
 <path d="M4720 1510 c0 -82 3 -100 15 -100 12 0 15 18 15 100 0 82 -3 100 -15 100 -12 0 -15 -18 -15 -100z"/>
 <path d="M4817 1604 c-4 -4 -7 -70 -7 -146 l0 -138 25 0 c25 0 25 1 25 82 l0 81 28 -36 c16 -22 36 -36 50 -37 29 0 28 4 -10 50 l-31 40 28 40 c16 23 32 43 37 46 16 10 7 24 -16 24 -16 0 -32 -13 -52 -42 l-29 -42 -5 40 c-5 37 -25 55 -43 38z"/>
 <path d="M1514 1365 c-4 -9 -2 -21 4 -27 15 -15 44 -1 40 19 -4 23 -36 29 -44 8z"/>
 <path d="M4712 1358 c2 -15 10 -23 23 -23 30 0 27 39 -3 43 -20 3 -23 0 -20 -20z"/>
 <path d="M645 1268 c-85 -30 -135 -102 -135 -193 0 -65 9 -86 57 -137 34 -35 35 -37 23 -73 -13 -39 -7 -110 11 -132 8 -9 1 -24 -25 -56 -50 -61 -66 -106 -66 -184 0 -79 24 -140 73 -192 77 -81 210 -105 306 -56 51 25 61 24 61 -7 0 -16 9 -18 65 -18 l65 0 0 153 c0 185 -13 239 -71 302 -54 59 -111 85 -201 92 -81 6 -98 15 -98 49 0 43 33 54 163 54 125 0 170 11 215 53 41 38 56 78 56 147 0 92 -30 145 -103 183 -53 26 -59 27 -210 26 -86 0 -169 -5 -186 -11z m329 -139 c33 -26 36 -79 6 -109 -18 -18 -33 -20 -154 -20 l-135 0 -21 27 c-26 33 -21 79 11 106 18 14 42 17 144 17 109 0 125 -2 149 -21z m-108 -514 c87 -57 83 -199 -7 -247 -121 -65 -248 57 -191 185 35 79 128 108 198 62z"/>
 <path d="M268 929 c-76 -18 -146 -83 -179 -164 -7 -17 -14 -111 -18 -225 l-6 -195 -33 -3 -33 -3 3 -62 3 -62 35 -5 c35 -5 35 -5 38 -63 l3 -58 67 3 67 3 3 57 3 57 67 3 67 3 3 62 3 62 -68 3 -68 3 -3 172 c-3 214 2 230 83 270 l56 28 -3 60 c-3 56 -5 60 -28 62 -14 1 -42 -3 -62 -8z"/>
 <path d="M1250 570 l0 -350 65 0 c58 0 65 2 65 19 0 32 15 33 64 5 67 -37 151 -32 223 14 l50 32 58 -35 c54 -32 66 -35 135 -35 91 0 162 30 210 88 54 66 60 101 60 369 l0 244 -72 -3 -73 -3 -5 -240 c-5 -254 -7 -266 -56 -304 -34 -26 -77 -27 -119 -1 -60 37 -65 61 -65 319 l0 231 -75 0 -75 0 0 -235 c0 -256 -3 -272 -56 -314 -50 -39 -125 -20 -163 42 -20 32 -21 48 -21 271 l0 236 -75 0 -75 0 0 -350z"/>
 <path d="M2297 192 c-92 -92 -167 -173 -167 -180 0 -9 43 -12 180 -12 l180 0 0 180 c0 138 -3 180 -13 180 -7 0 -88 -75 -180 -168z"/>
 </g>
<g id="layer102" fill="#5c595a" stroke="none">
 <path d="M1532 1603 c14 -4 18 -20 21 -96 l3 -92 2 98 c2 95 2 97 -20 96 -17 -1 -18 -3 -6 -6z"/>
 <path d="M2282 1603 c13 -3 18 -18 21 -56 l3 -52 2 58 c2 53 1 57 -20 56 -17 -1 -18 -3 -6 -6z"/>
 <path d="M2732 1603 c15 -4 18 -22 21 -146 l3 -142 2 148 c2 147 2 147 -20 146 -17 -1 -18 -3 -6 -6z"/>
 <path d="M4012 1604 c9 -3 19 -13 22 -22 3 -12 4 -12 3 3 -1 12 -10 21 -22 22 -15 1 -15 0 -3 -3z"/>
 <path d="M4502 1603 c13 -3 18 -18 21 -56 l3 -52 2 58 c2 53 1 57 -20 56 -17 -1 -18 -3 -6 -6z"/>
 <path d="M4815 1598 c-3 -8 -4 -75 -2 -149 l3 -134 2 143 c2 116 5 142 16 142 11 0 16 -14 18 -47 3 -43 4 -45 18 -28 8 10 10 16 3 12 -8 -5 -13 4 -15 30 -3 39 -32 59 -43 31z"/>
 <path d="M4916 1601 c-3 -4 7 -6 22 -3 25 5 26 4 12 -14 -14 -18 -14 -18 3 -5 9 7 17 17 17 22 0 12 -47 12 -54 0z"/>
 <path d="M2042 1530 c0 -19 2 -27 5 -17 2 9 2 25 0 35 -3 9 -5 1 -5 -18z"/>
 <path d="M1645 1479 c-4 -6 -4 -13 -1 -16 3 -4 6 -1 6 6 0 9 12 12 39 9 22 -2 37 0 35 4 -8 12 -72 10 -79 -3z"/>
 <path d="M2847 1483 c-3 -5 17 -8 43 -8 26 0 46 3 43 8 -2 4 -22 7 -43 7 -21 0 -41 -3 -43 -7z"/>
 <path d="M3346 1482 c-2 -4 12 -6 32 -4 56 5 62 10 15 11 -23 1 -44 -3 -47 -7z"/>
 <path d="M3955 1483 c22 -3 44 -10 48 -16 6 -8 7 -7 4 3 -2 10 -18 15 -48 16 -44 1 -44 1 -4 -3z"/>
 <path d="M4851 1403 c2 -92 6 -82 11 25 2 34 0 62 -4 62 -5 0 -7 -39 -7 -87z"/>
 <path d="M2302 1378 l2 -63 3 58 c4 53 6 57 21 45 15 -12 16 -11 3 5 -24 30 -31 19 -29 -45z"/>
 <path d="M4521 1423 c0 -12 2 -13 6 -5 4 10 8 10 21 0 15 -12 16 -11 3 5 -7 9 -17 17 -22 17 -5 0 -9 -8 -8 -17z"/>
 <path d="M3703 1365 c-3 -9 -3 -19 1 -22 3 -4 6 1 6 10 0 11 11 17 38 20 l37 4 -38 1 c-26 1 -39 -3 -44 -13z"/>
 <path d="M3867 1373 c12 -2 24 -11 26 -19 3 -9 4 -8 3 3 -1 12 -10 18 -26 19 -21 1 -21 0 -3 -3z"/>
 <path d="M4746 1362 c4 -14 0 -22 -13 -25 -17 -4 -17 -5 0 -6 21 -1 34 26 19 41 -8 8 -9 5 -6 -10z"/>
 <path d="M768 993 c34 -2 90 -2 125 0 34 2 6 3 -63 3 -69 0 -97 -1 -62 -3z"/>
 <path d="M560 945 c19 -19 36 -35 39 -35 3 0 -10 16 -29 35 -19 19 -36 35 -39 35 -3 0 10 -16 29 -35z"/>
 <path d="M1255 570 c0 -195 1 -275 2 -178 2 98 2 258 0 355 -1 98 -2 18 -2 -177z"/>
 <path d="M1394 695 c0 -126 2 -177 3 -112 2 65 2 168 0 230 -1 62 -3 9 -3 -118z"/>
 <path d="M1644 695 c0 -126 2 -177 3 -112 2 65 2 168 0 230 -1 62 -3 9 -3 -118z"/>
 <path d="M1784 700 c0 -124 2 -174 3 -112 2 61 2 163 0 225 -1 61 -3 11 -3 -113z"/>
 <path d="M2034 690 c0 -124 2 -174 3 -112 2 61 2 163 0 225 -1 61 -3 11 -3 -113z"/>
 <path d="M70 513 c-3 -95 -2 -169 3 -164 4 4 6 81 5 172 l-3 164 -5 -172z"/>
 <path d="M2295 190 c-118 -118 -166 -173 -159 -180 7 -7 72 -10 180 -8 l169 3 3 178 c2 139 0 177 -10 177 -7 0 -90 -76 -183 -170z"/>
 <path d="M145 100 l-70 -6 67 -2 c37 -1 70 3 73 8 3 6 5 9 3 8 -2 -1 -34 -4 -73 -8z"/>
 </g>
<g id="layer103" fill="#858383" stroke="none">
 <path d="M1548 1543 c5 -119 9 -131 10 -30 1 53 -1 97 -5 97 -5 0 -7 -30 -5 -67z"/>
 <path d="M2754 1465 c0 -82 2 -115 3 -72 2 43 2 110 0 150 -1 40 -3 5 -3 -78z"/>
 <path d="M4814 1597 c-2 -7 -3 -74 -2 -148 l3 -134 5 148 c3 81 4 147 2 147 -1 0 -5 -6 -8 -13z"/>
 <path d="M4853 1560 c0 -25 2 -35 4 -22 2 12 2 32 0 45 -2 12 -4 2 -4 -23z"/>
 <path d="M4854 1405 c0 -49 1 -71 3 -48 2 23 2 64 0 90 -2 26 -3 8 -3 -42z"/>
 <path d="M3706 1372 c-2 -4 13 -6 35 -4 21 2 39 6 39 8 0 7 -69 4 -74 -4z"/>
 <path d="M3867 1373 c12 -2 24 -11 26 -19 3 -9 4 -8 3 3 -1 12 -10 18 -26 19 -21 1 -21 0 -3 -3z"/>
 <path d="M2034 695 c0 -121 2 -169 3 -107 2 62 2 161 0 220 -1 59 -3 8 -3 -113z"/>
 <path d="M70 513 c-3 -95 -2 -169 3 -164 4 4 6 81 5 172 l-3 164 -5 -172z"/>
 <path d="M2295 190 c-118 -118 -166 -173 -159 -180 7 -7 72 -10 180 -8 l169 3 3 178 c2 139 0 177 -10 177 -7 0 -90 -76 -183 -170z"/>
 </g>
<g id="layer104" fill="#03afef" stroke="none">
 <path d="M2295 190 c-118 -118 -166 -173 -159 -180 7 -7 72 -10 180 -8 l169 3 3 178 c2 139 0 177 -10 177 -7 0 -90 -76 -183 -170z"/>
 </g>

</svg>